<svg xmlns="http://www.w3.org/2000/svg" width="206" height="50" viewBox="0 0 206 50" fill="none"><path d="M1.57882 40.1049C3.65331 40.4603 5.47078 40.7367 7.03124 40.8946C8.59169 41.0526 9.96857 41.1316 11.1986 41.1316C13.1446 41.1316 14.4664 40.9934 15.164 40.717C15.8616 40.4405 16.2104 39.9667 16.2104 39.2559C16.2104 38.7821 16.1002 38.4267 15.8616 38.2095C15.6229 37.9923 15.2374 37.8936 14.705 37.8936C13.934 37.8936 13.0895 37.9133 12.1899 37.9331C11.9513 37.9331 11.786 37.9331 11.731 37.9331C8.64677 37.9331 6.49885 37.4197 5.2872 36.4128C4.07555 35.4059 3.45136 33.6881 3.45136 31.2596C3.45136 29.4037 3.7451 27.5478 4.35092 25.7314C4.93839 23.9149 5.74615 22.3947 6.7375 21.21C7.69214 20.0649 9.03229 19.2554 10.7947 18.742C12.5387 18.2287 15.0171 17.9918 18.2298 17.9918C20.2859 17.9918 22.4339 18.0905 24.6736 18.3077C26.8949 18.5249 29.1714 18.8408 31.5029 19.2751L29.4835 28.6337C27.9781 28.2783 26.5645 28.0019 25.2427 27.8045C23.9209 27.6268 22.7092 27.5281 21.571 27.5281C19.0009 27.5281 17.2568 27.686 16.3022 28.0019C15.3659 28.3178 14.8886 28.8509 14.8886 29.6012C14.8886 30.075 15.0171 30.4107 15.2925 30.5884C15.5495 30.766 16.2655 30.845 17.4404 30.845H21.3691C23.6822 30.845 25.3528 31.3189 26.3993 32.2666C27.4457 33.2143 27.9781 34.7148 27.9781 36.7682C27.9781 38.7031 27.7211 40.4603 27.2254 42.0793C26.7297 43.6983 26.0321 45.0014 25.1325 46.0083C24.1412 47.1534 22.8194 47.9827 21.1488 48.496C19.4782 49.0094 17.3119 49.266 14.6316 49.266C12.2817 49.266 9.87678 49.1278 7.43512 48.8712C4.99346 48.6145 2.51509 48.2196 0 47.7063L1.57882 40.1049Z" fill="#EC1C24"></path><path d="M29.2263 48.3185L35.7252 18.8212H54.6893C56.8556 18.8212 58.4528 19.3938 59.4808 20.5586C60.5089 21.7235 61.0229 23.5202 61.0229 25.9685C61.0229 27.6664 60.8577 29.3841 60.5456 31.1611C60.2335 32.9183 59.8113 34.4188 59.2972 35.6627C58.3426 37.9332 57.1677 39.5325 55.7724 40.421C54.3772 41.3292 52.3027 41.7635 49.5673 41.7635H41.0124L39.5804 48.3185H29.2263ZM42.6279 34.4188H45.8406C47.4561 34.4188 48.6678 34.0634 49.4572 33.3329C50.2466 32.6024 50.6505 31.4967 50.6505 30.0357C50.6505 29.2459 50.4485 28.6734 50.0263 28.2982C49.6041 27.9231 48.9615 27.7454 48.0987 27.7454H44.1149L42.6279 34.4188Z" fill="#EC1C24"></path><path d="M66.5121 18.8212H76.8478L72.7906 37.183C72.6988 37.6173 72.6254 37.9727 72.5703 38.2886C72.5153 38.6045 72.4969 38.8612 72.4969 39.0389C72.4969 39.7299 72.6621 40.263 72.9926 40.6184C73.323 40.9738 73.837 41.1515 74.4979 41.1515C75.3608 41.1515 76.0584 40.8553 76.5908 40.2433C77.1232 39.6312 77.5271 38.6638 77.8024 37.3607L81.8596 18.8409H92.2321L88.1015 37.4396C87.514 40.1445 86.9816 42.0597 86.5043 43.1851C86.027 44.3105 85.4395 45.199 84.7419 45.89C83.567 47.0154 82.0616 47.8446 80.2074 48.3777C78.3532 48.9108 76.04 49.1872 73.2496 49.1872C69.1557 49.1872 66.2183 48.6344 64.4009 47.5287C62.5834 46.4231 61.6838 44.6461 61.6838 42.1979C61.6838 41.5858 61.7389 40.8948 61.8491 40.1445C61.9592 39.3943 62.1612 38.4071 62.4365 37.1237L66.5121 18.8212Z" fill="#EC1C24"></path><path d="M90.0662 48.3185L96.565 18.8212H112.17C113.418 18.8212 114.501 18.8607 115.437 18.9594C116.374 19.0581 117.053 19.1766 117.457 19.3345C118.925 19.9268 119.972 20.8351 120.614 22.0394C121.257 23.2636 121.569 24.9615 121.569 27.1728C121.569 28.0613 121.514 29.0288 121.385 30.1147C121.257 31.2006 121.092 32.3655 120.853 33.6093C120.468 35.6035 120.009 37.4002 119.495 38.9599C118.981 40.5394 118.448 41.803 117.861 42.7705C117.09 44.0933 116.245 45.1792 115.327 45.969C114.409 46.7785 113.4 47.3511 112.28 47.6867C111.527 47.9039 110.756 48.0618 109.948 48.1803C109.14 48.279 108.241 48.3382 107.25 48.3382C106.974 48.3382 106.589 48.3382 106.075 48.3185C105.561 48.2988 105.175 48.2988 104.918 48.2988H90.0662V48.3185ZM102.183 40.1445H104.018C105.285 40.1445 106.258 40.0261 106.919 39.8089C107.58 39.5917 108.112 39.1968 108.516 38.6835C109.122 37.8345 109.636 36.7486 110.04 35.406C110.444 34.0634 110.646 32.7801 110.646 31.5955C110.646 30.3713 110.407 29.5421 109.948 29.088C109.471 28.6339 108.553 28.4167 107.194 28.4167H104.808L102.183 40.1445Z" fill="#EC1C24"></path><path d="M121.11 48.3185L127.609 18.8212H139.156L140.9 31.5757C140.937 31.8324 140.992 32.3852 141.084 33.2145C141.176 34.0437 141.304 35.1691 141.469 36.5709C141.653 35.3665 141.947 33.8463 142.35 32.0101C142.424 31.6942 142.461 31.477 142.497 31.3388L145.269 18.8212H155.385L148.868 48.3185H137.43L135.319 37.0053C135.209 36.4327 135.081 35.7219 134.952 34.8729C134.805 34.0437 134.658 33.1552 134.511 32.2075C134.328 33.6093 134.016 35.2481 133.594 37.104V37.1632L131.078 48.3185H121.11Z" fill="#EC1C24"></path><path d="M153.347 48.3185L159.846 18.8212H170.328L163.811 48.3185H153.347Z" fill="#EC1C24"></path><path d="M168.254 48.3187L174.753 18.8214H184.96L183.326 26.4623C183.161 27.1928 182.996 27.9233 182.83 28.6144C182.647 29.3251 182.463 30.0359 182.243 30.7664C182.739 29.8187 183.363 28.8315 184.079 27.7654C184.189 27.6074 184.262 27.5087 184.299 27.4297L189.99 18.8017H202.712L190.871 34.4783L195.81 48.299H184.519L181.912 39.8091C181.876 39.7104 181.821 39.513 181.729 39.2168C181.435 38.2296 181.197 37.3411 181.013 36.5909C180.921 37.2424 180.829 37.8347 180.738 38.4073C180.627 38.9799 180.517 39.5327 180.389 40.0855L178.608 48.2792H168.254V48.3187Z" fill="#EC1C24"></path><path fill-rule="evenodd" clip-rule="evenodd" d="M8.2791 3.18413H159.735C158.854 4.44773 158.322 5.53365 158.12 6.36289C157.679 8.12009 157.954 9.48242 158.138 10.2327C158.487 11.674 159.552 13.1745 159.552 13.1745H5.6355L8.2791 3.18413Z" fill="#EC1C24"></path><path fill-rule="evenodd" clip-rule="evenodd" d="M175.433 3.42096C175.433 3.42096 176.149 4.32918 176.608 5.49406C177.159 6.89588 177.012 8.77154 176.774 10.2523C176.535 11.6739 175.323 13.3126 175.323 13.3126H203.613L206 3.40121H175.433V3.42096Z" fill="#EC1C24"></path><path fill-rule="evenodd" clip-rule="evenodd" d="M174.571 8.27801C174.571 4.11206 171.432 0.735855 167.558 0.735855C163.685 0.735855 160.545 4.11206 160.545 8.27801C160.545 12.444 163.685 15.8202 167.558 15.8202C171.432 15.8202 174.571 12.444 174.571 8.27801Z" fill="#EC1C24"></path></svg>